<svg width="51" height="51" viewBox="0 0 51 51" fill="none" xmlns="http://www.w3.org/2000/svg">
<circle cx="25.5" cy="25.5" r="25" fill="white" stroke="#004367"/>
<path d="M31.5591 34.3444C30.9852 34.3444 30.4348 34.1306 30.0288 33.7502C29.623 33.3696 29.395 32.8535 29.395 32.3155C29.395 31.7775 29.623 31.2614 30.0288 30.8808C30.4347 30.5004 30.9852 30.2866 31.5591 30.2866C32.1331 30.2866 32.6835 30.5004 33.0895 30.8808C33.4953 31.2614 33.7233 31.7775 33.7233 32.3155C33.7225 32.8533 33.4943 33.3691 33.0887 33.7495C32.683 34.1297 32.1329 34.3436 31.5591 34.3444ZM31.5591 31.0982C31.2148 31.0982 30.8844 31.2264 30.641 31.4547C30.3975 31.6829 30.2607 31.9927 30.2607 32.3155C30.2607 32.6382 30.3975 32.9481 30.641 33.1763C30.8844 33.4045 31.2149 33.5328 31.5591 33.5328C31.9034 33.5328 32.2339 33.4045 32.4773 33.1763C32.7208 32.948 32.8576 32.6382 32.8576 32.3155C32.8576 31.9927 32.7208 31.6829 32.4773 31.4547C32.2339 31.2265 31.9034 31.0982 31.5591 31.0982Z" fill="black"/>
<path d="M31.5591 37.5909C31.2411 37.5891 30.9238 37.5619 30.6108 37.5097C30.4226 37.4796 30.2779 37.3374 30.2541 37.1599L30.1177 36.1373H30.1179C29.9737 36.0904 29.8325 36.0362 29.6945 35.975L28.8258 36.6079V36.6081C28.6751 36.7177 28.4654 36.7219 28.3099 36.6182C27.7872 36.2762 27.3329 35.8503 26.9681 35.3603C26.8582 35.2143 26.8628 35.0182 26.9799 34.877L27.655 34.0626C27.5899 33.9333 27.5321 33.8009 27.4819 33.6657L26.3911 33.5378V33.538C26.2017 33.5157 26.0501 33.3797 26.0182 33.2032C25.9047 32.6156 25.9047 32.0136 26.0182 31.426C26.0501 31.2494 26.2017 31.1133 26.3911 31.0912L27.4819 30.9633C27.5319 30.8284 27.5899 30.6961 27.655 30.567L26.9793 29.7526H26.9795C26.8624 29.6113 26.8578 29.4147 26.9681 29.2689C27.3325 28.7785 27.7868 28.3526 28.3099 28.011C28.4656 27.9075 28.6752 27.9121 28.8258 28.0218L29.694 28.6548L29.6941 28.6549C29.9198 28.554 30.1544 28.4718 30.3954 28.4089C30.6222 28.3564 30.8527 28.4825 30.9158 28.6935C30.9789 28.9046 30.8518 29.1245 30.6286 29.1901C30.3606 29.26 30.1027 29.3602 29.8604 29.4884C29.7083 29.5688 29.5195 29.5556 29.3817 29.4551L28.5559 28.8529C28.4301 28.9473 28.3097 29.048 28.1954 29.1544C28.0796 29.2636 27.9701 29.3786 27.8673 29.4986L28.5095 30.2728C28.6168 30.4019 28.6305 30.5789 28.5445 30.7215C28.4079 30.9488 28.3012 31.1908 28.2264 31.4421C28.1793 31.5995 28.0363 31.7149 27.8634 31.7352L26.8246 31.8569C26.8066 32.0067 26.7979 32.1576 26.7981 32.3085C26.7983 32.4632 26.8078 32.6179 26.8263 32.7719L27.8651 32.8937C28.0379 32.9138 28.181 33.0293 28.2282 33.1866C28.3026 33.438 28.4094 33.68 28.5462 33.9072C28.6324 34.0499 28.6187 34.2271 28.5113 34.3564L27.869 35.1306C27.9675 35.2459 28.0725 35.3562 28.1832 35.4612C28.302 35.5721 28.427 35.6772 28.5577 35.7757L29.3831 35.1739L29.3829 35.1741C29.5209 35.0736 29.7097 35.0605 29.8618 35.1411C30.1041 35.2694 30.3622 35.3694 30.6304 35.4389C30.7985 35.4831 30.9218 35.6176 30.9432 35.7799L31.0731 36.7537C31.3967 36.7894 31.7239 36.7894 32.0475 36.7537L32.1774 35.7799C32.1988 35.6176 32.3221 35.4831 32.4902 35.4389C32.7584 35.3694 33.0164 35.2694 33.2584 35.1411C33.4105 35.0605 33.5993 35.0736 33.7373 35.1741L34.5622 35.7755V35.7753C34.8149 35.5828 35.0458 35.3663 35.2512 35.1294L34.6093 34.356C34.5022 34.2267 34.4887 34.0497 34.5747 33.9071C34.7109 33.68 34.8176 33.4383 34.8924 33.1874C34.9393 33.0298 35.0825 32.9142 35.2556 32.8939L36.2944 32.7722C36.3319 32.4688 36.3319 32.1623 36.2944 31.8589L35.2556 31.7371C35.0825 31.7168 34.9393 31.6011 34.8924 31.4437C34.818 31.1926 34.7113 30.9509 34.5747 30.7238C34.4887 30.5814 34.5026 30.4044 34.6099 30.2751L35.2514 29.5018H35.2512C35.046 29.2646 34.8153 29.0482 34.5625 28.8558L33.7377 29.4576V29.4574C33.5997 29.5579 33.4109 29.571 33.2588 29.4904C33.0165 29.3623 32.7586 29.2621 32.4906 29.192C32.3227 29.148 32.1994 29.0139 32.1778 28.8516L32.0479 27.8778C31.6182 27.831 31.1834 27.8448 30.7581 27.9183C30.6437 27.9394 30.5251 27.916 30.4293 27.8539C30.3332 27.7917 30.2681 27.6961 30.2486 27.5883C30.2289 27.4805 30.2565 27.37 30.3251 27.2816C30.3937 27.1932 30.4973 27.1343 30.6126 27.1186C31.2397 27.0106 31.8823 27.0106 32.5094 27.1186C32.6974 27.1486 32.8423 27.2908 32.866 27.4684L33.0025 28.491H33.0023C33.1462 28.5379 33.2875 28.5921 33.4252 28.6533L34.2934 28.0204V28.0202C34.4439 27.9104 34.6536 27.9059 34.8093 28.0093C35.3291 28.3546 35.7828 28.7799 36.1511 29.2672C36.2614 29.413 36.257 29.6096 36.1399 29.7509L35.4648 30.5648C35.5295 30.6942 35.5873 30.8266 35.6379 30.9613L36.7287 31.0892L36.7285 31.0891C36.9181 31.1113 37.0697 31.2474 37.1016 31.4238C37.2156 32.0117 37.2156 32.6138 37.1016 33.2016C37.0697 33.3781 36.9181 33.5141 36.7285 33.5364L35.6373 33.6643C35.5873 33.7992 35.5295 33.9315 35.4642 34.0606L36.1399 34.8745C36.257 35.0158 36.2614 35.2124 36.1511 35.3584C35.783 35.8457 35.3293 36.2711 34.8094 36.6163C34.6538 36.7198 34.4442 36.7154 34.2934 36.6056L33.4252 35.9727C33.2873 36.0339 33.146 36.0881 33.0019 36.135L32.8655 37.1576C32.8419 37.3351 32.697 37.4772 32.509 37.5074C32.1954 37.5605 31.8777 37.5884 31.5593 37.5909L31.5591 37.5909Z" fill="black"/>
<path d="M33.2896 14.0557H32.6914L31.8997 12.5714C31.5657 12.0097 30.9452 11.6501 30.2599 11.6211H18.1407C17.4554 11.6501 16.8349 12.0097 16.5008 12.5714L15.7092 14.0557H15.111C14.7666 14.0557 14.4362 14.184 14.1928 14.4122C13.9493 14.6405 13.8125 14.9503 13.8125 15.273V16.0846C13.8125 16.4074 13.9493 16.7172 14.1928 16.9454C14.4362 17.1736 14.7667 17.3019 15.111 17.3019H15.1442L16.8423 37.2173C16.8604 37.4287 17.049 37.5914 17.2751 37.5906H19.0064C19.1212 37.5906 19.2313 37.5479 19.3124 37.4718C19.3936 37.3957 19.4392 37.2925 19.4392 37.1849V35.9675H25.9316C26.1706 35.9675 26.3644 35.7858 26.3644 35.5618C26.3644 35.3377 26.1706 35.156 25.9316 35.156H19.0064C18.7674 35.156 18.5736 35.3377 18.5736 35.5618V36.7791H17.6747L16.0125 17.3019H30.2597C30.4987 17.3019 30.6925 17.1202 30.6925 16.8961C30.6925 16.6721 30.4987 16.4904 30.2597 16.4904H15.1107C14.8717 16.4904 14.6779 16.3087 14.6779 16.0846V15.2731C14.6779 15.049 14.8717 14.8673 15.1107 14.8673H33.2894C33.4042 14.8673 33.5144 14.91 33.5955 14.9861C33.6767 15.0622 33.7223 15.1655 33.7223 15.2731V16.0846C33.7223 16.1922 33.6767 16.2955 33.5955 16.3715C33.5144 16.4476 33.4042 16.4904 33.2894 16.4904H31.991C31.7519 16.4904 31.5581 16.6721 31.5581 16.8961C31.5581 17.1202 31.7519 17.3019 31.991 17.3019H32.3844L31.5581 26.1942C31.5479 26.302 31.5838 26.409 31.658 26.4918C31.7324 26.5746 31.8387 26.626 31.9537 26.6349C31.9662 26.6355 31.9786 26.6355 31.991 26.6349C32.2163 26.6356 32.4045 26.4744 32.4238 26.2641L33.2531 17.3023H33.2895C33.6338 17.3023 33.9642 17.174 34.2076 16.9458C34.4511 16.7175 34.5879 16.4078 34.5879 16.085V15.2734C34.5879 14.9506 34.4511 14.6408 34.2076 14.4126C33.9642 14.1844 33.6337 14.0561 33.2895 14.0561L33.2896 14.0557ZM17.2751 12.9342C17.4602 12.6457 17.7827 12.4589 18.1407 12.4326H30.2599C30.6179 12.4589 30.9404 12.6457 31.1255 12.9342L31.7238 14.0557H16.6767L17.2751 12.9342Z" fill="black"/>
</svg>
